<svg width="114" height="42" viewBox="0 0 114 42" fill="none" xmlns="http://www.w3.org/2000/svg">
<path d="M40.806 33.1224C40.806 33.1224 39.0403 39 32.5664 39C26.0924 39 23.7383 33.1224 23.7383 33.1224H14.3216C14.3216 33.1224 -0.391947 29.5959 3.72784 26.0694C7.84763 22.5429 15.4986 18.4286 19.6184 17.2531C23.7382 16.0776 43.7486 14.9021 43.7486 14.9021C43.7486 14.9021 52.5768 6.08574 55.5195 4.32247C58.4622 2.55921 75.5299 2.55915 80.2382 4.32246C84.9466 6.08577 95.5403 11.3755 106.134 15.4898C116.728 19.6041 106.723 31.3592 106.723 31.3592C103.191 33.7102 96.7174 33.1224 96.7174 33.1224C96.7174 33.1224 93.7747 39 87.3008 39C80.8268 39 78.4726 33.1224 78.4726 33.1224" stroke="#EE6945" stroke-width="5"/>
</svg>
